<?xml version="1.0" encoding="UTF-8" standalone="no"?>
<svg
   xmlns:dc="http://purl.org/dc/elements/1.1/"
   xmlns:cc="http://creativecommons.org/ns#"
   xmlns:rdf="http://www.w3.org/1999/02/22-rdf-syntax-ns#"
   xmlns:svg="http://www.w3.org/2000/svg"
   xmlns="http://www.w3.org/2000/svg"
   width="169.48312mm"
   height="169.57791mm"
   viewBox="0 0 600.53075 600.86661"
   id="svg2"
   version="1.1">
  <defs
     id="defs4" />
  <metadata
     id="metadata7">
    <rdf:RDF>
      <cc:Work
         rdf:about="">
        <dc:format>image/svg+xml</dc:format>
        <dc:type
           rdf:resource="http://purl.org/dc/dcmitype/StillImage" />
        <dc:title></dc:title>
      </cc:Work>
    </rdf:RDF>
  </metadata>
  <g
     style="fill:#ff6700;fill-opacity:1"
     id="layer1"
     transform="translate(-61.399662,-235.44108)">
    <ellipse
       style="fill:#ff6700;fill-opacity:1;fill-rule:nonzero"
       id="path3360"
       cx="361.66504"
       cy="535.87439"
       rx="300.2655"
       ry="300.4335" />
  </g>
  <path
     id="path3379"
     d="M 265.13595,494.96676 C 236.25971,491.69583 207.40549,481.18662 184.00924,465.42164 125.26596,425.83678 99.118083,353.75392 114.68197,274.30296 129.61702,198.06243 181.9426,137.97417 253.29965,115.12043 c 22.70473,-7.27193 39.37198,-9.75791 65.75522,-9.80802 21.98971,-0.0419 31.42565,0.96074 48.67418,5.17162 31.04797,7.57978 55.50689,21.1351 77.07775,42.71734 23.3737,23.38549 37.08197,49.84232 43.34078,83.64256 2.03376,10.98792 2.80607,39.17565 1.40953,51.48169 -4.74132,41.77613 -21.35081,74.42499 -47.9263,94.20467 -25.70109,19.12875 -63.62015,24.632 -84.96261,12.33174 -9.59055,-5.52753 -17.81848,-17.9858 -20.11705,-30.458 -0.63741,-3.46114 -1.43055,-6.18542 -1.76289,-6.05314 -0.33209,0.13071 -3.15318,3.6325 -6.26894,7.78075 -10.15391,13.51893 -21.8593,23.03199 -35.70779,29.01843 -9.66096,4.17678 -18.85437,5.99724 -30.56839,6.05326 -18.56108,0.0889 -30.99288,-4.88848 -43.35221,-17.35698 -14.17638,-14.30241 -20.15585,-31.24433 -20.10422,-56.95493 0.045,-21.21043 3.95398,-38.78009 12.69156,-57.01553 6.55079,-13.67269 12.94429,-22.87343 23.50761,-33.83049 32.31448,-33.51847 78.83398,-45.9241 132.03271,-35.21095 10.06478,2.02674 25.47816,6.82379 28.11137,8.75011 1.53306,1.12054 1.14037,4.22529 -6.61902,52.28066 -11.7735,72.91121 -12.11285,76.04029 -9.46492,87.29459 1.46147,6.21476 3.51526,9.40245 8.08245,12.54559 2.80922,1.93359 3.9762,2.13811 10.15959,1.78119 32.06072,-1.85191 55.42597,-50.27105 51.18072,-106.05986 -4.67204,-61.39392 -40.11246,-102.48088 -99.2582,-115.07541 -11.09649,-2.36296 -13.59803,-2.55415 -33.41596,-2.55415 -19.71113,0 -22.3566,0.19969 -33.15667,2.50179 -65.11933,13.88158 -111.4906,62.17718 -125.09188,130.28382 -4.79625,24.01474 -5.308,49.72921 -1.4581,73.31443 9.31992,57.09777 44.48338,96.49471 98.22304,110.04961 26.94809,6.79716 55.47317,6.61561 92.68374,-0.58886 11.44756,-2.21698 28.42888,-2.26738 32.40467,-0.0968 6.71599,3.66692 5.41289,10.38355 -3.63959,18.76478 -15.76492,14.59517 -38.99813,20.7202 -81.38571,21.45521 -11.78155,0.2045 -24.93884,-0.0281 -29.23817,-0.51442 z M 296.1799,351.99385 c 13.02179,-6.39807 24.59604,-21.35539 30.70987,-39.6855 2.25685,-6.76436 12.394,-67.44808 11.42942,-68.41242 -2.39102,-2.39074 -21.39562,-2.8677 -30.3341,-0.76005 -19.22192,4.53063 -37.33939,21.60252 -46.03478,43.38002 -3.51091,8.79568 -5.20687,15.83927 -6.2681,26.05058 -2.16654,20.84219 3.81098,35.97354 16.13941,40.85554 7.09113,2.80821 16.90758,2.2333 24.35828,-1.42817 z"
     style="fill:#ffffff" />
</svg>
