<?xml version="1.0" encoding="utf-8"?>
<!-- Generator: Adobe Illustrator 21.0.2, SVG Export Plug-In . SVG Version: 6.00 Build 0)  -->
<svg version="1.1" id="Слой_1" xmlns="http://www.w3.org/2000/svg" xmlns:xlink="http://www.w3.org/1999/xlink" x="0px" y="0px"
	 viewBox="0 0 397 397" style="enable-background:new 0 0 397 397;" xml:space="preserve">
<style type="text/css">
	.st0{fill:#3C5A9A;}
</style>
<path class="st0" d="M198.5-0.1C88.9-0.1,0,88.8,0,198.4s88.9,198.5,198.5,198.5c10.4,0,20.6-0.8,30.5-2.3V266.3h-41.5v-51.1H229
	v-37.7c0-43.7,25.2-67.5,61.9-67.5c17.6,0,32.7,1.4,37.1,2v45.7h-25.5c-19.9,0-23.8,10.1-23.8,24.9v32.6h47.6l-6.2,51.1h-41.4V380
	C348.4,349.2,397,279.5,397,198.4C397,88.8,308.1-0.1,198.5-0.1z"/>
</svg>
