<?xml version="1.0" encoding="utf-8"?>
<!-- Generator: Adobe Illustrator 21.0.2, SVG Export Plug-In . SVG Version: 6.00 Build 0)  -->
<svg version="1.1" id="Слой_1" xmlns="http://www.w3.org/2000/svg" xmlns:xlink="http://www.w3.org/1999/xlink" x="0px" y="0px"
	 viewBox="0 0 397 397" style="enable-background:new 0 0 397 397;" xml:space="preserve">
<style type="text/css">
	.st0{fill:#3C5A9A;}
	.st1{fill:#FFFFFF;}
</style>
<path class="st0" d="M198.5,396.9L198.5,396.9C88.9,396.9,0,308,0,198.4l0,0C0,88.8,88.9-0.1,198.5-0.1l0,0
	C308.1-0.1,397,88.8,397,198.4l0,0C397,308,308.1,396.9,198.5,396.9z"/>
<path class="st1" d="M229,177.5v37.7h-41.5v51.1H229v128.3c17.4-2.7,34.1-7.7,49.7-14.6V266.3h41.4l6.2-51.1h-47.6v-32.6
	c0-14.8,3.9-24.9,23.8-24.9H328V112c-4.4-0.6-19.5-2-37.1-2C254.2,110,229,133.8,229,177.5z"/>
</svg>
