<?xml version="1.0" encoding="UTF-8" standalone="no"?>
<svg
   xmlns:dc="http://purl.org/dc/elements/1.1/"
   xmlns:cc="http://creativecommons.org/ns#"
   xmlns:rdf="http://www.w3.org/1999/02/22-rdf-syntax-ns#"
   xmlns:svg="http://www.w3.org/2000/svg"
   xmlns="http://www.w3.org/2000/svg"
   viewBox="0 0 512 512"
   height="512"
   width="512"
   version="1.1"
   id="svg2">
  <metadata
     id="metadata8">
    <rdf:RDF>
      <cc:Work
         rdf:about="">
        <dc:format>image/svg+xml</dc:format>
        <dc:type
           rdf:resource="http://purl.org/dc/dcmitype/StillImage" />
        <dc:title></dc:title>
      </cc:Work>
    </rdf:RDF>
  </metadata>
  <defs
     id="defs6" />
  <circle
     r="256"
     cy="256"
     cx="256"
     id="path4144"
     style="fill:#00ffff;fill-opacity:1;fill-rule:nonzero" />
  <path
     id="path4157"
     d="m 233.6015,424.28805 c -27.04766,-3.89383 -48.78704,-12.31076 -74.61257,-28.88794 -1.83526,-1.17809 -2.41887,-0.73188 -13.83388,10.57896 -11.67165,11.56514 -14.00926,13.10684 -16.33955,10.77658 -0.76946,-0.76945 -1.03237,-10.03693 -1.03237,-36.39117 0,-26.35425 0.26291,-35.62173 1.03237,-36.39126 0.76987,-0.76984 10.13258,-1.03232 36.82135,-1.03232 36.84599,0 37.85372,0.0902 37.85372,3.38781 0,0.72765 -5.66691,6.99947 -12.59324,13.93731 l -12.59324,12.61432 3.5521,2.24237 c 13.08218,8.25839 31.31146,15.30293 48.44712,18.72195 12.64191,2.52235 37.13343,2.73252 49.52773,0.42495 47.69254,-8.87939 86.45727,-39.57921 105.0544,-83.1981 8.00365,-18.77222 10.801,-33.1639 10.7786,-55.45234 -0.0145,-14.35173 -0.29407,-17.65785 -2.29218,-27.09983 -1.25169,-5.91464 -3.44392,-14.19554 -4.87158,-18.40204 -3.5337,-10.41159 -3.06725,-12.11452 5.17764,-18.90212 5.61794,-4.62501 8.48933,-5.85155 12.03737,-5.14195 4.73828,0.94766 7.17143,4.49005 10.94773,15.93912 6.93693,21.03153 9.26071,37.35539 8.54962,60.0592 -0.81107,25.89625 -5.42919,44.48175 -16.99474,68.39478 -23.61208,48.82077 -66.7995,81.64978 -121.70718,92.51607 -12.15376,2.40526 -40.42471,3.10292 -52.90922,1.30565 z M 104.12455,324.92134 c -4.150486,-1.69876 -7.303515,-8.36256 -11.62351,-24.56595 -14.366468,-53.88526 -1.866486,-110.66471 33.71274,-153.13555 54.06498,-64.537188 148.38028,-79.545539 219.36831,-34.90796 4.5721,2.87495 8.64226,5.22721 9.04481,5.22721 0.40253,0 6.14144,-5.41999 12.75315,-12.04438 6.61176,-6.62441 12.48281,-12.044369 13.04683,-12.044369 0.56397,0 1.68242,0.656975 2.48542,1.459945 1.347,1.347007 1.4109,4.225364 0.82603,37.208494 -0.44621,25.16462 -0.9239,35.93572 -1.61354,36.38065 -0.53884,0.3476 -16.87183,0.63798 -36.29552,0.64523 -26.33585,0.01 -35.57834,-0.24935 -36.34818,-1.01921 -2.40011,-2.40009 -0.85688,-4.71397 11.19924,-16.79165 14.16255,-14.18783 14.18349,-12.00663 -0.18727,-19.48423 -56.8531,-29.58254 -127.08873,-16.39936 -169.61161,31.83604 -20.57738,23.34172 -32.55638,52.83731 -34.7164,85.48125 -1.02416,15.47778 1.60991,34.37042 7.24439,51.9601 3.26977,10.20754 2.81115,12.48864 -3.59936,17.9024 -8.16336,6.89407 -10.80901,7.88789 -15.68553,5.89198 z"
     style="fill:#ffffff" />
</svg>
