<?xml version="1.0" encoding="utf-8"?>
<!-- Generator: Adobe Illustrator 21.0.2, SVG Export Plug-In . SVG Version: 6.00 Build 0)  -->
<svg version="1.1" xmlns="http://www.w3.org/2000/svg" xmlns:xlink="http://www.w3.org/1999/xlink" x="0px" y="0px"
	 viewBox="0 0 123.5 123.3" style="enable-background:new 0 0 123.5 123.3;" xml:space="preserve">
<style type="text/css">
	.st0{fill:#FFFFFF;}
	.st1{fill:#08FE36;}
	.st2{fill:#FE2F4F;}
</style>
<g id="Слой_2">
</g>
<g id="Слой_3">
	<path class="st0" d="M88.3,65.1H35.2c-1.9,0-3.5-1.6-3.5-3.5v0c0-1.9,1.6-3.5,3.5-3.5h53.1c1.9,0,3.5,1.6,3.5,3.5v0
		C91.8,63.5,90.2,65.1,88.3,65.1z"/>
	<path class="st0" d="M88.3,83.2H35.2c-1.9,0-3.5-1.6-3.5-3.5l0,0c0-1.9,1.6-3.5,3.5-3.5h53.1c1.9,0,3.5,1.6,3.5,3.5l0,0
		C91.8,81.6,90.2,83.2,88.3,83.2z"/>
	<path class="st0" d="M88.3,47.1H35.2c-1.9,0-3.5-1.6-3.5-3.5v0c0-1.9,1.6-3.5,3.5-3.5h53.1c1.9,0,3.5,1.6,3.5,3.5v0
		C91.8,45.5,90.2,47.1,88.3,47.1z"/>
</g>
<g id="svg2" xmlns:cc="http://creativecommons.org/ns#" xmlns:dc="http://purl.org/dc/elements/1.1/" xmlns:rdf="http://www.w3.org/1999/02/22-rdf-syntax-ns#" xmlns:svg="http://www.w3.org/2000/svg">
	<g id="g3355" transform="matrix(0.18364312,0,0,0.18364312,23.483629,37.153505)">
		<path class="st1" d="M544.7-116.6c0-9.6-7.8-17.4-17.4-17.4c0,0,0,0,0,0H-40.1c0,0,0,0,0,0c-9.6,0-17.4,7.8-17.4,17.4v425.8
			c0,9.6,7.8,17.4,17.4,17.4c9.6,0,17.4-7.8,17.4-17.4V-99.2h532.6v533.3H-62c-9.6,0-17.4,7.8-17.4,17.4S-71.5,469-62,469h589.3
			c9.6,0,17.4-7.8,17.4-17.4c0,0,0,0,0-0.1c0,0,0,0,0-0.1V-116.6z"/>
		<path class="st2" d="M-127.9,383.3c0,9.6,7.8,17.4,17.4,17.4c0,0,0,0,0,0h567.4c0,0,0,0,0,0c9.6,0,17.4-7.8,17.4-17.4V-42.6
			c0-9.6-7.8-17.4-17.4-17.4c-9.6,0-17.4,7.8-17.4,17.4v408.4H-93v-533.3h571.8c9.6,0,17.4-7.8,17.4-17.4s-7.8-17.4-17.4-17.4
			h-589.3c-9.6,0-17.4,7.8-17.4,17.4c0,0,0,0,0,0.1s0,0,0,0.1V383.3z"/>
	</g>
</g>
</svg>
