<?xml version="1.0" encoding="utf-8"?>
<!-- Generator: Adobe Illustrator 21.0.2, SVG Export Plug-In . SVG Version: 6.00 Build 0)  -->
<svg version="1.1"
	 id="svg2" xmlns:cc="http://creativecommons.org/ns#" xmlns:dc="http://purl.org/dc/elements/1.1/" xmlns:rdf="http://www.w3.org/1999/02/22-rdf-syntax-ns#" xmlns:svg="http://www.w3.org/2000/svg"
	 xmlns="http://www.w3.org/2000/svg" xmlns:xlink="http://www.w3.org/1999/xlink" x="0px" y="0px" viewBox="0 0 308 123.5"
	 style="enable-background:new 0 0 308 123.5;" xml:space="preserve">
<style type="text/css">
	.st0{font-family:'Comfortaa-Light';}
	.st1{font-size:66px;}
	.st2{font-family:'Comfortaa';}
	.st3{font-size:39px;}
	.st4{fill:#FE2F4F;}
	.st5{fill:#08FE36;}
</style>
<text transform="matrix(1 0 0 1 62.3285 93.5838)" class="st0 st1">Р</text>
<text transform="matrix(1 0 0 1 99.6884 93.5918)" class="st2 st3">А</text>
<text transform="matrix(1 0 0 1 136.0903 93.5918)" class="st2 st3">Д</text>
<text transform="matrix(1 0 0 1 176.0574 93.5918)" class="st2 st3">И</text>
<text transform="matrix(1 0 0 1 212.2227 93.5913)" class="st2 st3">А</text>
<text transform="matrix(1 0 0 1 248.9676 93.5913)" class="st2 st3">Н</text>
<text transform="matrix(1 0 0 1 282.1477 93.5918)" class="st2 st3">Т</text>
<g>
	<path class="st4" d="M111.6,0.2H3.4c-1.8,0-3.2,1.4-3.2,3.2c0,0,0,0,0,0s0,0,0,0v104.3c0,1.8,1.4,3.2,3.2,3.2h79.3
		c0.1,0,0.3,0,0.4,0h24.2c1.8,0,3.3-1.5,3.3-3.3c-0.1-1.7-1.5-3.2-3.3-3.2H83.1c-0.2,0-0.3,0-0.5,0.1h-76V6.6h105
		c1.8,0,3.2-1.4,3.2-3.2C114.8,1.7,113.4,0.2,111.6,0.2z"/>
	<path class="st4" d="M107.7,25.7c-1.7-0.1-3.1,1.3-3.2,3c-0.1,0.3-0.1,0.5-0.1,0.8v12.3c0,0,0.1,0,0.1,0V49c0,1.8,1.5,3.2,3.2,3.2
		c1.8,0,3.3-1.5,3.3-3.2V28.9C111,27.1,109.5,25.7,107.7,25.7z"/>
</g>
<g>
	<path class="st5" d="M120.5,12.8H16.3c-1.8,0-3.2,1.4-3.2,3.2v78.2c0,1.7,1.4,3.2,3.2,3.2c1.8,0,3.2-1.4,3.2-3.2v-75h97.8v6.8
		c-0.1,0.3-0.1,0.6-0.1,0.9V49c0,1.8,1.4,3.2,3.2,3.2c1.8,0,3.2-1.4,3.2-3.2v-7.3c0,0,0.1,0,0.1,0V16
		C123.7,14.2,122.3,12.8,120.5,12.8z"/>
	<path class="st5" d="M123.6,107.6c0-1.6-1.4-3.1-3.2-3.1c-1.8,0-3.2,1.4-3.2,3.2v9.4H12.3c-1.8,0-3.2,1.4-3.2,3.2
		c0,1.8,1.5,3.2,3.2,3.2h108.2c1.8,0,3.2-1.4,3.2-3.2c0,0,0,0,0,0c0,0,0,0,0,0V112c0,0-0.1,0-0.1,0V107.6z"/>
</g>
</svg>
