<?xml version="1.0" encoding="utf-8"?>
<!-- Generator: Adobe Illustrator 21.0.2, SVG Export Plug-In . SVG Version: 6.00 Build 0)  -->
<svg version="1.1"
	 id="svg2" xmlns:cc="http://creativecommons.org/ns#" xmlns:dc="http://purl.org/dc/elements/1.1/" xmlns:inkscape="http://www.inkscape.org/namespaces/inkscape" xmlns:rdf="http://www.w3.org/1999/02/22-rdf-syntax-ns#" xmlns:sodipodi="http://sodipodi.sourceforge.net/DTD/sodipodi-0.dtd" xmlns:svg="http://www.w3.org/2000/svg"
	 xmlns="http://www.w3.org/2000/svg" xmlns:xlink="http://www.w3.org/1999/xlink" x="0px" y="0px" viewBox="0 0 500 500"
	 style="enable-background:new 0 0 500 500;" xml:space="preserve">
<style type="text/css">
	.st0{fill:#01AEF2;}
</style>
<g id="layer1" transform="translate(0,-552.36218)">
	<g id="layer1-9" transform="translate(-549.00515,80.294372)">
	</g>
	<g id="layer1-6" transform="translate(-575.71429,39.999999)">
	</g>
</g>
<g>
	<path class="st0" d="M250,0C111.9,0,0,111.9,0,250s111.9,250,250,250s250-111.9,250-250S388.1,0,250,0z M321.5,410
		c-15.1,0-29.3-3.8-41.8-10.3c-9,1.7-18.3,2.5-27.9,2.5c-84.3,0-152.7-67.3-152.7-150.5c0-10.3,1.1-20.5,3.1-30.3
		c-7.8-12.9-12.2-28-12.2-44.2c0-48.2,39.7-87.2,88.5-87.2v0c17.3,0,33.4,4.9,47,13.4c8.5-1.4,17.2-2.2,26.1-2.2
		c84.4,0,152.7,67.4,152.7,150.5c0,11.1-1.2,21.8-3.5,32.3c5.9,11.7,9.3,24.8,9.2,38.8C410,370.9,370.4,410,321.5,410z"/>
	<path class="st0" d="M334.2,263.3c-4.2-7.2-9.9-13.3-17.3-17.9c-7.2-4.6-15.9-8.5-26.1-11.7c-10-3.1-21.3-6.1-33.8-8.7
		c-9.8-2.2-16.9-3.9-21.1-5.1c-4.1-1.1-8.2-2.7-12.2-4.7c-3.9-1.9-6.9-4.3-9.1-6.8c-2.1-2.5-3.1-5.3-3.1-8.8
		c0-5.6,3.1-10.3,9.4-14.4c6.6-4.3,15.5-6.4,26.4-6.4c11.8,0,20.4,2,25.5,5.8c5.3,4,9.8,9.7,13.7,16.7c3.3,5.6,6.2,9.4,9.1,11.9
		c3.1,2.7,7.5,4,13.2,4c6.3,0,11.5-2.3,15.7-6.5c4.2-4.3,6.3-9.2,6.3-14.5c0-5.6-1.6-11.3-4.8-17.2c-3.2-5.8-8.2-11.2-14.8-16.4
		c-6.8-5.2-15.2-9.3-25.2-12.4c-10-3-21.9-4.6-35.6-4.6l0,0c-17,0-32.1,2.3-44.8,7c-12.9,4.7-22.8,11.5-29.7,20.2
		c-6.8,8.8-10.3,19-10.3,30.4c0,11.9,3.3,22.1,9.8,30.2c6.5,7.9,15.3,14.3,26.3,18.9c10.8,4.5,24.2,8.5,40,11.8
		c11.7,2.4,21.1,4.7,28,6.9c6.8,2,12.2,5,16.3,8.8c4,3.7,5.9,8.3,5.9,14.2c0,7.5-3.7,13.7-11.3,18.8c-7.8,5.3-18.1,7.9-30.7,7.9
		c-9.2,0-16.6-1.3-22.2-3.9c-5.5-2.6-9.7-5.8-12.7-9.8c-3.2-4.1-6.1-9.2-8.9-15.3c-2.4-5.7-5.4-10-8.9-12.9
		c-3.7-3.1-8.1-4.6-13.4-4.6c-6.3,0-11.8,2-15.9,5.8c-4.2,4-6.4,8.7-6.4,14.2c0,8.8,3.3,18,9.8,27.2c6.5,9.2,14.9,16.5,25.2,22
		c14.4,7.5,32.8,11.3,54.7,11.3c18.3,0,34.3-2.8,47.8-8.3c13.5-5.5,23.9-13.3,31-23.1c7.2-9.8,10.8-21.2,10.4-33.8
		C340.4,279.5,338.3,270.5,334.2,263.3z"/>
</g>
</svg>
