<?xml version="1.0" encoding="utf-8"?>
<!-- Generator: Adobe Illustrator 21.0.2, SVG Export Plug-In . SVG Version: 6.00 Build 0)  -->
<svg version="1.1" id="Слой_1" xmlns="http://www.w3.org/2000/svg" xmlns:xlink="http://www.w3.org/1999/xlink" x="0px" y="0px"
	 viewBox="0 0 512 512" style="enable-background:new 0 0 512 512;" xml:space="preserve">
<style type="text/css">
	.st0{fill:#4D77A2;}
</style>
<g id="Guides">
</g>
<path class="st0" d="M258,6.9C119.9,6.9,8,118.8,8,256.9c0,138.1,111.9,250,250,250c138.1,0,250-111.9,250-250
	C508,118.8,396.1,6.9,258,6.9z M401.2,366.5l-43.8,0.6c0,0-9.4,1.9-21.8-6.7c-16.4-11.2-31.9-40.5-43.9-36.7
	c-12.2,3.9-11.8,30.2-11.8,30.2s0.1,5.6-2.7,8.6c-3,3.3-8.9,3.9-8.9,3.9h-19.6c0,0-43.3,2.6-81.4-37.1
	c-41.6-43.3-78.3-129.2-78.3-129.2s-2.1-5.6,0.2-8.4c2.6-3.1,9.6-3.3,9.6-3.3l46.9-0.3c0,0,4.4,0.7,7.6,3.1c2.6,1.9,4.1,5.5,4.1,5.5
	s7.6,19.2,17.6,36.5c19.6,33.9,28.7,41.3,35.4,37.6c9.7-5.3,6.8-47.9,6.8-47.9s0.2-15.4-4.9-22.3c-3.9-5.3-11.3-6.9-14.6-7.3
	c-2.6-0.3,1.7-6.5,7.3-9.2c8.4-4.1,23.3-4.4,41-4.2c13.7,0.1,17.7,1,23,2.3c16.2,3.9,10.7,19,10.7,55.1c0,11.6-2.1,27.9,6.3,33.3
	c3.6,2.3,12.4,0.3,34.4-37c10.4-17.7,18.2-38.5,18.2-38.5s1.7-3.7,4.4-5.3c2.7-1.6,6.4-1.1,6.4-1.1l49.4-0.3c0,0,14.8-1.8,17.2,4.9
	c2.5,7-5.5,23.4-25.7,50.3c-33.1,44.1-36.8,40-9.3,65.5c26.3,24.4,31.7,36.2,32.6,37.7C424.2,365.1,401.2,366.5,401.2,366.5z"/>
</svg>
